#Comment line ignore any data following # character 
#Hierarchical Translation and Rotation (.htr) file 
[Header]	
#Header keywords are followed by a single value 
FileType HTR		#Single word string
DataType HTRS		#Translation followed by rotation and scale data
FileVersion 1		#integer
NumSegments 84		#integer
NumFrames 2		#integer
DataFrameRate 30		#integer, data frame rate in this file
EulerRotationOrder ZYX
CalibrationUnits mm
RotationUnits Degrees
GlobalAxisofGravity Y
BoneLengthAxis Y
ScaleFactor 1.00
[SegmentNames&Hierarchy]
#CHILD	PARENT
MASTER GLOBAL
root MASTER
chest root
L_mid_tent01 root
R_mid_tent01 root
spine01 root
Bip01_Neck chest
L_humerus chest
R_humerus chest
weapon_bone chest
Bip01_Head Bip01_Neck
eye_left_bone Bip01_Head
eye_right_bone Bip01_Head
L_forearm L_humerus
L_front_hand L_forearm
L_weapon_bone L_forearm
L_front_hand01_01 L_front_hand
L_front_hand02_01 L_front_hand
L_front_hand03_01 L_front_hand
L_front_hand01_02 L_front_hand01_01
L_front_hand02_02 L_front_hand02_01
L_front_hand03_02 L_front_hand03_01
R_forearm R_humerus
R_front_hand R_forearm
R_weapon_bone R_forearm
R_front_hand01_01 R_front_hand
R_front_hand02_01 R_front_hand
R_front_hand03_01 R_front_hand
R_front_hand01_02 R_front_hand01_01
R_front_hand02_02 R_front_hand02_01
R_front_hand03_02 R_front_hand03_01
null_rope01_connect L_mid_tent01
Rope1_Seg01 null_rope01_connect
Rope1_Seg02 Rope1_Seg01
Rope1_Seg03 Rope1_Seg02
Rope1_Seg04 Rope1_Seg03
Rope1_Seg05 Rope1_Seg04
Rope1_Seg06 Rope1_Seg05
Rope1_Seg07 Rope1_Seg06
Rope1_Seg09 Rope1_Seg07
L_mid_hand01 Rope1_Seg09
L_mid_hand02 Rope1_Seg09
L_mid_hand03 Rope1_Seg09
null_rope02_connect R_mid_tent01
Rope2_Seg01 null_rope02_connect
Rope2_Seg02 Rope2_Seg01
Rope2_Seg03 Rope2_Seg02
Rope2_Seg04 Rope2_Seg03
Rope2_Seg05 Rope2_Seg04
Rope2_Seg06 Rope2_Seg05
Rope2_Seg07 Rope2_Seg06
Rope2_Seg09 Rope2_Seg07
R_mid_hand01 Rope2_Seg09
R_mid_hand02 Rope2_Seg09
R_mid_hand03 Rope2_Seg09
spine02 spine01
spine03 spine02
pelvis spine03
null_rope03_connect pelvis
null_rope04_connect pelvis
Rope3_Seg01 null_rope03_connect
Rope3_Seg02 Rope3_Seg01
Rope3_Seg03 Rope3_Seg02
Rope3_Seg04 Rope3_Seg03
Rope3_Seg05 Rope3_Seg04
Rope3_Seg06 Rope3_Seg05
Rope3_Seg07 Rope3_Seg06
Rope3_Seg08 Rope3_Seg07
Rope3_Seg09 Rope3_Seg08
R_rear_hand01 Rope3_Seg09
R_rear_hand02 Rope3_Seg09
R_rear_hand03 Rope3_Seg09
Rope4_Seg01 null_rope04_connect
Rope4_Seg02 Rope4_Seg01
Rope4_Seg03 Rope4_Seg02
Rope4_Seg04 Rope4_Seg03
Rope4_Seg05 Rope4_Seg04
Rope4_Seg06 Rope4_Seg05
Rope4_Seg07 Rope4_Seg06
Rope4_Seg08 Rope4_Seg07
Rope4_Seg09 Rope4_Seg08
L_rear_hand01 Rope4_Seg09
L_rear_hand02 Rope4_Seg09
L_rear_hand03 Rope4_Seg09
[BasePosition]
#SegmentName Tx, Ty, Tz, Rx, Ry, Rz, BoneLength
MASTER 0.000000 0.000000 0.000000 -90.000000 0.000000 0.000000 10.000000 
root 0.000000 0.000000 0.000000 0.000000 0.000000 0.000000 10.000000 
chest 0.000000 0.000000 0.000000 0.000000 0.000000 0.000000 10.000000 
L_mid_tent01 0.000000 0.000000 0.000000 0.000000 0.000000 0.000000 10.000000 
R_mid_tent01 0.000000 0.000000 0.000000 0.000000 0.000000 0.000000 10.000000 
spine01 0.000000 0.000000 0.000000 0.000000 0.000000 0.000000 10.000000 
Bip01_Neck 0.000000 0.000000 0.000000 0.000000 0.000000 0.000000 10.000000 
L_humerus 0.000000 0.000000 0.000000 0.000000 0.000000 0.000000 10.000000 
R_humerus 0.000000 0.000000 0.000000 0.000000 0.000000 0.000000 10.000000 
weapon_bone 0.000000 0.000000 0.000000 0.000000 0.000000 0.000000 10.000000 
Bip01_Head 0.000000 0.000000 0.000000 0.000000 0.000000 0.000000 10.000000 
eye_left_bone 0.000000 0.000000 0.000000 0.000000 0.000000 0.000000 10.000000 
eye_right_bone 0.000000 0.000000 0.000000 0.000000 0.000000 0.000000 10.000000 
L_forearm 0.000000 0.000000 0.000000 0.000000 0.000000 0.000000 10.000000 
L_front_hand 0.000000 0.000000 0.000000 0.000000 0.000000 0.000000 10.000000 
L_weapon_bone 0.000000 0.000000 0.000000 0.000000 0.000000 0.000000 10.000000 
L_front_hand01_01 0.000000 0.000000 0.000000 0.000000 0.000000 0.000000 10.000000 
L_front_hand02_01 0.000000 0.000000 0.000000 0.000000 0.000000 0.000000 10.000000 
L_front_hand03_01 0.000000 0.000000 0.000000 0.000000 0.000000 0.000000 10.000000 
L_front_hand01_02 0.000000 0.000000 0.000000 0.000000 0.000000 0.000000 10.000000 
L_front_hand02_02 0.000000 0.000000 0.000000 0.000000 0.000000 0.000000 10.000000 
L_front_hand03_02 0.000000 0.000000 0.000000 0.000000 0.000000 0.000000 10.000000 
R_forearm 0.000000 0.000000 0.000000 0.000000 0.000000 0.000000 10.000000 
R_front_hand 0.000000 0.000000 0.000000 0.000000 0.000000 0.000000 10.000000 
R_weapon_bone 0.000000 0.000000 0.000000 0.000000 0.000000 0.000000 10.000000 
R_front_hand01_01 0.000000 0.000000 0.000000 0.000000 0.000000 0.000000 10.000000 
R_front_hand02_01 0.000000 0.000000 0.000000 0.000000 0.000000 0.000000 10.000000 
R_front_hand03_01 0.000000 0.000000 0.000000 0.000000 0.000000 0.000000 10.000000 
R_front_hand01_02 0.000000 0.000000 0.000000 0.000000 0.000000 0.000000 10.000000 
R_front_hand02_02 0.000000 0.000000 0.000000 0.000000 0.000000 0.000000 10.000000 
R_front_hand03_02 0.000000 0.000000 0.000000 0.000000 0.000000 0.000000 10.000000 
null_rope01_connect 0.000000 0.000000 0.000000 0.000000 0.000000 0.000000 10.000000 
Rope1_Seg01 0.000000 0.000000 0.000000 0.000000 0.000000 0.000000 10.000000 
Rope1_Seg02 0.000000 0.000000 0.000000 0.000000 0.000000 0.000000 10.000000 
Rope1_Seg03 0.000000 0.000000 0.000000 0.000000 0.000000 0.000000 10.000000 
Rope1_Seg04 0.000000 0.000000 0.000000 0.000000 0.000000 0.000000 10.000000 
Rope1_Seg05 0.000000 0.000000 0.000000 0.000000 0.000000 0.000000 10.000000 
Rope1_Seg06 0.000000 0.000000 0.000000 0.000000 0.000000 0.000000 10.000000 
Rope1_Seg07 0.000000 0.000000 0.000000 0.000000 0.000000 0.000000 10.000000 
Rope1_Seg09 0.000000 0.000000 0.000000 0.000000 0.000000 0.000000 10.000000 
L_mid_hand01 0.000000 0.000000 0.000000 0.000000 0.000000 0.000000 10.000000 
L_mid_hand02 0.000000 0.000000 0.000000 0.000000 0.000000 0.000000 10.000000 
L_mid_hand03 0.000000 0.000000 0.000000 0.000000 0.000000 0.000000 10.000000 
null_rope02_connect 0.000000 0.000000 0.000000 0.000000 0.000000 0.000000 10.000000 
Rope2_Seg01 0.000000 0.000000 0.000000 0.000000 0.000000 0.000000 10.000000 
Rope2_Seg02 0.000000 0.000000 0.000000 0.000000 0.000000 0.000000 10.000000 
Rope2_Seg03 0.000000 0.000000 0.000000 0.000000 0.000000 0.000000 10.000000 
Rope2_Seg04 0.000000 0.000000 0.000000 0.000000 0.000000 0.000000 10.000000 
Rope2_Seg05 0.000000 0.000000 0.000000 0.000000 0.000000 0.000000 10.000000 
Rope2_Seg06 0.000000 0.000000 0.000000 0.000000 0.000000 0.000000 10.000000 
Rope2_Seg07 0.000000 0.000000 0.000000 0.000000 0.000000 0.000000 10.000000 
Rope2_Seg09 0.000000 0.000000 0.000000 0.000000 0.000000 0.000000 10.000000 
R_mid_hand01 0.000000 0.000000 0.000000 0.000000 0.000000 0.000000 10.000000 
R_mid_hand02 0.000000 0.000000 0.000000 0.000000 0.000000 0.000000 10.000000 
R_mid_hand03 0.000000 0.000000 0.000000 0.000000 0.000000 0.000000 10.000000 
spine02 0.000000 0.000000 0.000000 0.000000 0.000000 0.000000 10.000000 
spine03 0.000000 0.000000 0.000000 0.000000 0.000000 0.000000 10.000000 
pelvis 0.000000 0.000000 0.000000 0.000000 0.000000 0.000000 10.000000 
null_rope03_connect 0.000000 0.000000 0.000000 0.000000 0.000000 0.000000 10.000000 
null_rope04_connect 0.000000 0.000000 0.000000 0.000000 0.000000 0.000000 10.000000 
Rope3_Seg01 0.000000 0.000000 0.000000 0.000000 0.000000 0.000000 10.000000 
Rope3_Seg02 0.000000 0.000000 0.000000 0.000000 0.000000 0.000000 10.000000 
Rope3_Seg03 0.000000 0.000000 0.000000 0.000000 0.000000 0.000000 10.000000 
Rope3_Seg04 0.000000 0.000000 0.000000 0.000000 0.000000 0.000000 10.000000 
Rope3_Seg05 0.000000 0.000000 0.000000 0.000000 0.000000 0.000000 10.000000 
Rope3_Seg06 0.000000 0.000000 0.000000 0.000000 0.000000 0.000000 10.000000 
Rope3_Seg07 0.000000 0.000000 0.000000 0.000000 0.000000 0.000000 10.000000 
Rope3_Seg08 0.000000 0.000000 0.000000 0.000000 0.000000 0.000000 10.000000 
Rope3_Seg09 0.000000 0.000000 0.000000 0.000000 0.000000 0.000000 10.000000 
R_rear_hand01 0.000000 0.000000 0.000000 0.000000 0.000000 0.000000 10.000000 
R_rear_hand02 0.000000 0.000000 0.000000 0.000000 0.000000 0.000000 10.000000 
R_rear_hand03 0.000000 0.000000 0.000000 0.000000 0.000000 0.000000 10.000000 
Rope4_Seg01 0.000000 0.000000 0.000000 0.000000 0.000000 0.000000 10.000000 
Rope4_Seg02 0.000000 0.000000 0.000000 0.000000 0.000000 0.000000 10.000000 
Rope4_Seg03 0.000000 0.000000 0.000000 0.000000 0.000000 0.000000 10.000000 
Rope4_Seg04 0.000000 0.000000 0.000000 0.000000 0.000000 0.000000 10.000000 
Rope4_Seg05 0.000000 0.000000 0.000000 0.000000 0.000000 0.000000 10.000000 
Rope4_Seg06 0.000000 0.000000 0.000000 0.000000 0.000000 0.000000 10.000000 
Rope4_Seg07 0.000000 0.000000 0.000000 0.000000 0.000000 0.000000 10.000000 
Rope4_Seg08 0.000000 0.000000 0.000000 0.000000 0.000000 0.000000 10.000000 
Rope4_Seg09 0.000000 0.000000 0.000000 0.000000 0.000000 0.000000 10.000000 
L_rear_hand01 0.000000 0.000000 0.000000 0.000000 0.000000 0.000000 10.000000 
L_rear_hand02 0.000000 0.000000 0.000000 0.000000 0.000000 0.000000 10.000000 
L_rear_hand03 0.000000 0.000000 0.000000 0.000000 0.000000 0.000000 10.000000 
#Beginning of Data. Separated by tabs
#Fr	Tx	Ty	Tz	Rx	Ry	Rz	SF
[MASTER]
24 4221.049316 5895.070313 1494.898315 0.001660 0.001660 0.001660 7402.960938
25 4401.956055 6143.748047 1321.641724 0.001660 0.001660 0.001660 7672.652344
[root]
24 -30.357361 -60.292355 1502.268066 -103.316177 -25.915600 -93.544197 1503.783936
25 -28.241737 -60.951534 1502.117554 -101.491959 -26.546415 -92.501419 1503.618896
[chest]
24 -84.512650 -34.090519 0.000000 -13.469853 21.451021 155.336975 91.129311
25 -84.512650 -34.090519 0.000000 -12.873583 21.534552 156.724823 91.129311
[L_mid_tent01]
24 27.298092 22.179085 -249.919113 4.317279 31.878986 82.238220 252.381973
25 27.298050 22.179077 -249.919128 4.517277 32.960941 82.424072 252.381989
[R_mid_tent01]
24 23.228794 24.509907 226.238495 155.951981 -46.609150 94.295372 228.744751
25 23.228794 24.509907 226.238495 155.885361 -46.731827 94.544029 228.744751
[spine01]
24 -0.361383 -0.195265 0.000000 0.002025 0.001187 29.227079 0.410763
25 -0.361383 -0.195265 0.000000 0.002020 0.001195 28.809875 0.410763
[Bip01_Neck]
24 165.484543 71.581718 0.000119 176.643677 -1.657967 43.431911 180.302734
25 165.484543 71.581718 0.000119 176.643677 -1.657967 43.431911 180.302734
[L_humerus]
24 -13.983130 -135.272980 -120.471481 -6.687336 65.181908 83.210213 181.680161
25 -13.983130 -135.272980 -120.471481 -6.609587 65.461128 83.299477 181.680161
[R_humerus]
24 -13.983309 -135.273102 125.287651 26.139610 -66.023697 69.566307 184.909012
25 -13.983309 -135.273102 125.287651 26.254757 -66.324493 69.445854 184.909012
[weapon_bone]
24 235.964890 -300.705902 0.000000 0.000000 -89.951546 -128.212341 382.234833
25 235.964890 -300.705902 0.000000 0.000000 -89.951546 -128.212341 382.234833
[Bip01_Head]
24 213.333435 186.023254 7.804565 4.443141 0.096322 -43.897816 283.154938
25 213.327332 186.042465 7.558290 5.200442 6.151287 -43.834988 283.156281
[eye_left_bone]
24 -24.626970 125.451866 -64.772606 0.000000 -90.000000 -99.840431 143.318359
25 -24.626970 125.451866 -64.772606 0.000000 -90.000000 -99.840431 143.318359
[eye_right_bone]
24 -24.626970 125.451866 64.327362 0.000000 -89.965736 80.156380 143.117676
25 -24.626970 125.451866 64.327362 0.000000 -89.965736 80.156380 143.117676
[L_forearm]
24 322.776093 0.000000 -0.000119 0.000421 -0.002309 -110.667839 322.776093
25 322.776093 0.000000 -0.000119 0.000419 -0.002309 -110.579201 322.776093
[L_front_hand]
24 241.149185 -0.042021 -3.300071 -178.667953 -1.835447 -27.422350 241.171753
25 241.149185 -0.042021 -3.300071 -178.667953 -1.835447 -27.422350 241.171753
[L_weapon_bone]
24 156.183838 0.000000 0.000000 0.000014 0.000007 0.000001 156.183838
25 156.183838 0.000000 0.000000 0.000014 0.000007 0.000001 156.183838
[L_front_hand01_01]
24 86.095154 20.947098 -0.655860 -0.328329 -0.501879 70.955475 88.609184
25 86.095154 20.947098 -0.655860 -0.335131 -0.500211 71.723770 88.609184
[L_front_hand02_01]
24 86.935165 -11.437475 24.513514 147.981110 -57.745930 -53.867290 91.046425
25 86.935165 -11.437475 24.513514 149.028946 -58.148323 -55.100948 91.046425
[L_front_hand03_01]
24 86.637497 -14.123976 -20.424902 -147.939621 55.963066 -55.586479 90.126129
25 86.637497 -14.123976 -20.424902 -148.918808 56.366669 -56.764694 90.126129
[L_front_hand01_02]
24 71.020905 -0.000179 0.000030 0.000320 -0.002325 -105.671494 71.020905
25 71.020905 -0.000179 0.000030 0.000321 -0.002325 -105.725021 71.020905
[L_front_hand02_02]
24 71.020927 -0.000119 0.000060 0.000320 -0.002325 -105.671494 71.020927
25 71.020927 -0.000119 0.000060 0.000321 -0.002325 -105.725021 71.020927
[L_front_hand03_02]
24 71.020905 -0.000060 0.000060 0.000320 -0.002325 -105.671494 71.020905
25 71.020905 -0.000060 0.000060 0.000321 -0.002325 -105.725021 71.020905
[R_forearm]
24 322.776428 -0.000060 0.000030 0.201375 0.067373 -109.321373 322.776428
25 322.776428 -0.000060 0.000030 0.201431 0.067207 -109.226761 322.776428
[R_front_hand]
24 238.847015 -0.006795 2.210259 -2.635298 -10.645461 -26.312506 238.857239
25 238.847015 -0.006795 2.210259 -2.635298 -10.645461 -26.312506 238.857239
[R_weapon_bone]
24 155.664093 0.002503 -0.000030 0.003487 0.001180 -90.988930 155.664078
25 155.664093 0.002503 -0.000030 0.003487 0.001180 -90.988930 155.664078
[R_front_hand01_01]
24 87.624611 14.231146 22.918642 -150.319702 -58.611855 56.726898 91.683487
25 87.624611 14.231146 22.918642 -151.998245 -59.169323 58.688122 91.683487
[R_front_hand02_01]
24 89.356956 14.367283 -19.491137 150.553192 56.974056 58.956398 92.579636
25 89.356956 14.367283 -19.491137 152.130112 57.525925 60.828308 92.579636
[R_front_hand03_01]
24 87.286232 -22.307278 -0.143439 0.140549 -0.429018 -72.881996 90.091743
25 87.286232 -22.307278 -0.143439 0.147862 -0.431521 -74.042160 90.091743
[R_front_hand01_02]
24 71.020905 0.000060 0.000119 0.002323 -0.000334 106.381714 71.020905
25 71.020905 0.000060 0.000119 0.002323 -0.000334 106.381714 71.020905
[R_front_hand02_02]
24 71.020844 -0.000030 -0.000119 0.002323 -0.000334 106.381714 71.020836
25 71.020844 -0.000030 -0.000119 0.002323 -0.000334 106.381714 71.020836
[R_front_hand03_02]
24 71.020905 0.000000 0.000030 0.002323 -0.000334 106.381714 71.020905
25 71.020905 0.000000 0.000030 0.002323 -0.000334 106.381714 71.020905
[null_rope01_connect]
24 328.732483 0.000000 -0.000238 -139.570251 -42.689651 174.401810 328.732483
25 328.732483 0.000000 -0.000238 -139.199570 -44.012245 174.833023 328.732483
[Rope1_Seg01]
24 -0.000022 0.000016 0.000088 109.584213 -12.914911 169.056152 0.000092
25 -0.000023 0.000015 0.000092 109.611763 -11.295382 169.945313 0.000096
[Rope1_Seg02]
24 139.999863 -0.000179 0.000000 1.504201 -10.043191 -1.898183 139.999863
25 139.999863 -0.000179 0.000000 1.858024 -10.755275 -2.091067 139.999863
[Rope1_Seg03]
24 139.999924 0.000060 -0.000060 0.964949 -17.628721 -3.692031 139.999924
25 139.999924 0.000060 -0.000060 1.417373 -18.412836 -4.247379 139.999924
[Rope1_Seg04]
24 139.999924 -0.000060 -0.000119 -1.967975 -24.274061 -7.048109 139.999924
25 139.999924 -0.000060 -0.000119 -2.417080 -27.511494 -6.321608 139.999924
[Rope1_Seg05]
24 139.999832 0.000119 -0.000060 -17.074368 -40.301476 0.832227 139.999832
25 139.999832 0.000119 -0.000060 -18.146265 -39.585678 1.625957 139.999832
[Rope1_Seg06]
24 139.999954 0.000119 -0.000060 -15.917257 -19.650414 -4.601417 139.999954
25 139.999954 0.000119 -0.000060 -12.219766 -14.588435 -3.875640 139.999954
[Rope1_Seg07]
24 139.999985 0.000060 0.000000 -7.082201 -6.129854 -3.936790 139.999985
25 139.999985 0.000060 0.000000 -5.769587 -5.182761 -2.974355 139.999985
[Rope1_Seg09]
24 121.602913 0.000119 -0.000089 -89.793175 -1.359789 0.847147 121.602913
25 121.602913 0.000119 -0.000089 -89.793175 -1.359789 0.847147 121.602913
[L_mid_hand01]
24 103.859421 1.038730 8.195221 130.544373 -67.584526 -38.866943 104.187431
25 103.859421 1.038730 8.195221 130.544373 -67.584534 -38.866943 104.187431
[L_mid_hand02]
24 105.572853 -4.139662 -10.864139 -168.923172 43.409309 -73.498886 106.211075
25 105.572853 -4.139662 -10.864139 -168.923172 43.409321 -73.498909 106.211075
[L_mid_hand03]
24 104.641464 17.579376 -3.913581 -6.012627 17.808178 74.893677 106.179977
25 104.641464 17.579376 -3.913581 -6.012628 17.808174 74.893669 106.179977
[null_rope02_connect]
24 328.732849 0.000179 -0.000119 -122.447754 53.379036 27.602106 328.732849
25 328.732849 0.000179 -0.000119 -122.485199 50.849796 26.893055 328.732849
[Rope2_Seg01]
24 0.000060 0.000065 0.000000 -108.739838 31.430212 -29.152914 0.000088
25 0.000061 0.000061 0.000000 -119.695732 34.112812 -31.323818 0.000086
[Rope2_Seg02]
24 139.999741 -0.000060 -0.000119 -6.458647 -9.040572 7.528398 139.999756
25 139.999741 -0.000060 -0.000119 -0.688773 -14.927735 6.749702 139.999756
[Rope2_Seg03]
24 140.000107 0.000030 0.000000 -12.858536 -35.760189 27.077814 140.000107
25 140.000107 0.000030 0.000000 -9.553963 -47.745197 24.668051 140.000107
[Rope2_Seg04]
24 139.999802 0.000000 -0.000060 -13.655175 -46.486919 32.276329 139.999802
25 139.999802 0.000000 -0.000060 -6.154589 -35.958302 17.852432 139.999802
[Rope2_Seg05]
24 139.999985 -0.000060 0.000119 4.708638 -6.356453 8.926190 139.999985
25 139.999985 -0.000060 0.000119 8.220254 -4.136596 12.287499 139.999985
[Rope2_Seg06]
24 139.999893 -0.000030 -0.000119 8.494496 0.944213 8.048103 139.999893
25 139.999893 -0.000030 -0.000119 10.739192 0.123176 10.778708 139.999893
[Rope2_Seg07]
24 139.999893 0.000060 -0.000060 5.703500 -1.189063 5.783468 139.999893
25 139.999893 0.000060 -0.000060 6.342345 -0.504658 6.089002 139.999893
[Rope2_Seg09]
24 121.338966 0.000089 -0.000060 33.793236 -1.359788 -0.847141 121.338966
25 121.338966 0.000089 -0.000060 33.793236 -1.359788 -0.847141 121.338966
[R_mid_hand01]
24 104.680779 11.144459 -10.335981 -16.212065 45.237247 70.462852 105.778534
25 104.680779 11.144459 -10.335981 -16.212059 45.237240 70.462852 105.778534
[R_mid_hand02]
24 104.070427 2.443552 8.231699 49.067383 -67.749779 39.286449 104.424065
25 104.070427 2.443552 8.231699 49.067371 -67.749794 39.286461 104.424065
[R_mid_hand03]
24 106.028137 -11.221827 -5.996406 -177.101105 15.551026 -76.585571 106.788818
25 106.028137 -11.221827 -5.996406 -177.101105 15.551026 -76.585571 106.788818
[spine02]
24 129.756927 0.001550 0.000119 0.482827 -4.031020 -14.725173 129.756927
25 129.756927 0.001550 0.000119 0.473035 -4.032232 -14.586387 129.756927
[spine03]
24 78.613983 0.081699 -4.898819 1.970259 3.795625 17.599558 78.766510
25 78.613976 0.081696 -4.898811 1.964159 3.798764 17.520529 78.766502
[pelvis]
24 169.435242 0.051022 0.000000 -0.068942 -0.178280 16.373295 169.435257
25 169.435242 0.051022 0.000000 -0.068685 -0.178378 16.208391 169.435257
[null_rope03_connect]
24 -1.257226 -2.466202 137.391083 -139.883194 -75.920845 -152.980835 137.418976
25 -1.257226 -2.466202 137.391083 -141.030792 -78.324654 -150.531494 137.418976
[null_rope04_connect]
24 -1.259640 -2.480268 -137.844437 -139.883194 -75.920845 -152.980835 137.872513
25 -1.259640 -2.480268 -137.844437 -141.030792 -78.324654 -150.531494 137.872513
[Rope3_Seg01]
24 -0.000008 -0.000383 -0.000153 -169.391754 -37.726940 -25.440651 0.000413
25 -0.000008 -0.000397 -0.000153 -174.690109 -42.225037 -24.950350 0.000425
[Rope3_Seg02]
24 139.999924 -0.000119 0.000060 2.204038 1.141586 5.353295 139.999924
25 139.999924 -0.000119 0.000060 3.896604 -1.011646 5.318783 139.999924
[Rope3_Seg03]
24 139.999924 -0.000119 0.000119 1.075403 3.940398 7.700209 139.999924
25 139.999924 -0.000119 0.000119 2.548420 1.547925 7.596201 139.999924
[Rope3_Seg04]
24 139.999924 0.000119 0.000000 -0.122936 10.763629 12.153705 139.999924
25 139.999924 0.000119 0.000000 0.676337 7.399867 11.244199 139.999924
[Rope3_Seg05]
24 139.999924 -0.000238 0.000060 10.530734 -21.608559 -9.804891 139.999924
25 139.999924 -0.000238 0.000060 9.192466 -18.341278 -7.921415 139.999924
[Rope3_Seg06]
24 139.999893 -0.000119 -0.000060 90.140251 -51.917271 -27.415195 139.999893
25 139.999893 -0.000119 -0.000060 89.516586 -49.923267 -27.734076 139.999893
[Rope3_Seg07]
24 139.999771 0.000060 -0.000119 18.596209 -8.078981 13.558590 139.999771
25 139.999771 0.000060 -0.000119 22.017675 -9.722877 15.417295 139.999771
[Rope3_Seg08]
24 139.999985 -0.000060 0.000000 5.287804 -1.233341 6.017775 139.999985
25 139.999985 -0.000060 0.000000 5.635004 -1.119563 6.848739 139.999985
[Rope3_Seg09]
24 90.185997 -0.000179 -0.000060 89.793228 -1.359877 -0.847183 90.185997
25 90.185997 -0.000179 -0.000060 89.793228 -1.359877 -0.847183 90.185997
[R_rear_hand01]
24 103.366196 -6.073594 -10.757982 -177.714203 24.565960 -73.910950 104.101845
25 103.366196 -6.073594 -10.757982 -177.714203 24.565960 -73.910950 104.101845
[R_rear_hand02]
24 100.509819 12.039542 -7.992327 -12.874833 36.868488 72.167213 101.543350
25 100.509819 12.039542 -7.992327 -12.874829 36.868488 72.167213 101.543350
[R_rear_hand03]
24 101.539970 5.215704 5.435467 71.484581 -71.816628 21.513813 101.819031
25 101.539970 5.215704 5.435467 71.484581 -71.816628 21.513813 101.819031
[Rope4_Seg01]
24 0.000000 -0.000718 -0.000240 76.546295 -36.377060 -142.931396 0.000757
25 0.000000 -0.000748 -0.000244 71.021591 -33.747040 -138.032150 0.000787
[Rope4_Seg02]
24 139.999985 0.000060 0.000119 1.641315 -6.829950 -1.652201 139.999985
25 139.999985 0.000060 0.000119 1.751419 -8.574592 -2.297351 139.999985
[Rope4_Seg03]
24 139.999924 0.000000 -0.000238 7.401967 -12.762332 -1.156393 139.999924
25 139.999924 0.000000 -0.000238 9.502963 -16.203220 -1.745077 139.999924
[Rope4_Seg04]
24 139.999985 0.000000 0.000119 146.723618 -48.622810 -9.571610 139.999985
25 139.999985 0.000000 0.000119 126.158455 -38.330921 -4.530943 139.999985
[Rope4_Seg05]
24 139.999802 -0.000060 -0.000119 30.246920 25.133991 45.260014 139.999802
25 139.999802 -0.000060 -0.000119 45.929710 10.090168 56.620701 139.999802
[Rope4_Seg06]
24 139.999924 0.000000 0.000060 0.715349 6.129893 4.255804 139.999924
25 139.999924 0.000000 0.000060 1.275901 9.108749 6.507170 139.999924
[Rope4_Seg07]
24 139.999802 0.000000 0.000000 0.298816 2.895446 1.968428 139.999802
25 139.999802 0.000000 0.000000 0.362505 3.877513 2.617084 139.999802
[Rope4_Seg08]
24 139.999924 0.000000 0.000119 -1.394644 1.512795 1.017074 139.999924
25 139.999924 0.000000 0.000119 -1.386066 1.951491 1.298869 139.999924
[Rope4_Seg09]
24 90.185791 0.000060 0.000060 -135.617828 2.228885 0.850567 90.185791
25 90.185791 0.000060 0.000060 -135.617828 2.228885 0.850567 90.185791
[L_rear_hand01]
24 101.696655 -8.392275 -7.654577 -12.874829 -36.868488 107.832764 102.329041
25 101.696655 -8.392275 -7.654577 -12.874834 -36.868500 107.832779 102.329041
[L_rear_hand02]
24 102.726799 -1.568258 5.773216 71.484581 71.816628 158.486160 102.900848
25 102.726799 -1.568258 5.773216 71.484627 71.816643 158.486176 102.900848
[L_rear_hand03]
24 104.552910 9.721220 -10.420293 -177.714203 -24.565960 -106.089035 105.519653
25 104.552910 9.721220 -10.420293 -177.714203 -24.565966 -106.089035 105.519653
